<svg xmlns="http://www.w3.org/2000/svg" xmlns:xlink="http://www.w3.org/1999/xlink" width="1620px" height="840px" viewBox="0 0 1620 840" preserveAspectRatio="xMidYMid meet"  ><rect id="svgEditorBackground" x="0" y="0" width="1620" height="840" style="fill: none; stroke: none;"/><rect x="234.018" y="-69.8953" style="fill:khaki;stroke:none;stroke-width:1px;" id="e1_rectangle" width="604" height="744" rx="0" transform="matrix(0.556476 0 0 0.414594 -16.6294 545.923)" ry="0"/><polyline style="stroke:black;fill:black;stroke-width:5px;" id="e2_polyline" points="12 482 406 116 770 476" transform="matrix(0.711427 0 0 0.711427 1.89811 239.303)"/><g id="g_e3_svg"/><line id="e4_line" x1="1006" y1="194.128" x2="1014" y2="806.128" style="stroke:saddlebrown;fill:none;stroke-width:15px;" transform="matrix(0.745471 0 0 0.712542 145.014 362.81)"/><polyline style="stroke:darkgreen;fill:none;stroke-width:15px;" id="e5_polyline" points="899.293 453.028 1007.29 327.028 1107.29 455.028" transform="matrix(0.745471 0 0 0.745471 145.014 309.164)"/><circle id="e6_circle" cx="729.525" cy="1420" style="fill:yellow;stroke:none;stroke-width:1px;" r="594.121" transform="matrix(0.126558 0 0 0.126558 735.673 46.2873)"/><line id="e7_line" x1="1450.1824951171038" y1="387.637298583913" x2="1052.1829833983538" y2="515.6376342772724" style="stroke:yellow;fill:none;stroke-width:20px;" transform="matrix(0.366268 0.213084 -0.213084 0.366268 390.169 -251.433)"/><rect x="484" y="590" style="fill:saddlebrown;stroke:black;stroke-width:1px;" id="e8_rectangle" width="106" height="220" rx="0" transform="matrix(0.711427 0 0 0.711427 1.89811 239.303)" ry="0"/><rect x="248" y="542" style="fill:olivedrab;stroke:black;stroke-width:1px;" id="e9_rectangle" width="104" height="126" rx="0" transform="matrix(0.711427 0 0 0.711427 1.89811 239.303)" ry="0"/><polyline style="stroke:darkgreen;fill:none;stroke-width:15px;" id="e1_polyline" points="898.561 522.051 1006.56 396.051 1106.56 524.051" transform="matrix(0.745471 0 0 0.745471 145.014 309.164)"/><polyline style="stroke:darkgreen;fill:none;stroke-width:15px;" id="e3_polyline" points="901.854 587.05 1009.86 461.05 1109.86 589.05" transform="matrix(0.745471 0 0 0.745471 145.014 309.164)"/><polyline style="stroke:darkgreen;fill:none;stroke-width:15px;" id="e4_polyline" points="933.317 646.683 1041.32 520.683 1141.32 648.683" transform="matrix(0.745471 0 0 0.745471 119.014 113.164)"/><polyline style="stroke:darkgreen;fill:none;stroke-width:15px;" id="e6_polyline" points="903.805 649.366 1011.81 523.366 1111.81 651.366" transform="matrix(0.745471 0 0 0.745471 145.014 309.164)"/><line id="e1_line" x1="1555.49" y1="533.306" x2="1157.49" y2="661.306" style="stroke:yellow;fill:none;stroke-width:20px;" transform="matrix(0.304372 -0.294813 0.294813 0.304372 219.761 504.497)"/><line id="e2_line" x1="1806.97" y1="465.617" x2="1408.97" y2="593.617" style="stroke:yellow;fill:none;stroke-width:20px;" transform="matrix(0.11272 0.408474 -0.408474 0.11272 901.348 -431.331)"/><line id="e3_line" x1="1449.69" y1="487.249" x2="1051.69" y2="615.249" style="stroke:yellow;fill:none;stroke-width:20px;" transform="matrix(0.410256 0.025451 -0.025451 0.410256 214.613 -36.2823)"/><line id="e5_line" x1="1529.27" y1="560.522" x2="1131.27" y2="688.523" style="stroke:yellow;fill:none;stroke-width:20px;" transform="matrix(0.381375 -0.118997 0.118997 0.381375 157.16 185.227)"/></svg>