<?xml version="1.0" encoding="iso-8859-1"?>
<!-- Generator: Adobe Illustrator 19.0.0, SVG Export Plug-In . SVG Version: 6.00 Build 0)  -->
<svg xmlns="http://www.w3.org/2000/svg" xmlns:xlink="http://www.w3.org/1999/xlink" version="1.1" id="Layer_1" x="0px" y="0px" viewBox="0 0 496 496" style="enable-background:new 0 0 496 496;" xml:space="preserve" width="512px" height="512px">
<g>
	<g>
		<g>
			<path d="M456,32H332L308,0H188l-24,32H40C17.944,32,0,49.944,0,72v240c0,22.056,17.944,40,40,40h48v144h320V352h48     c22.056,0,40-17.944,40-40V72C496,49.944,478.056,32,456,32z M176,42.664L196,16h104l20,26.664v47.664     C300.512,73.928,275.408,64,248,64c-27.408,0-52.512,9.928-72,26.336V42.664z M248,80c52.936,0,96,43.064,96,96     c0,52.936-43.064,96-96,96c-52.936,0-96-43.064-96-96C152,123.064,195.064,80,248,80z M16,72c0-13.232,10.768-24,24-24h120     v58.944c-1.304,1.656-2.576,3.328-3.784,5.056H16V72z M16,128h130.96c-6.952,14.576-10.96,30.808-10.96,48     c0,23.792,7.512,45.84,20.216,64H16V128z M392,480H104V320h16v128h256V320h16V480z M136,432V320h224v112H136z M480,240h-16v16h16     v56c0,13.232-10.768,24-24,24h-48v-16h32v-16h-32h-32H120H88H56v16h32v16H40c-13.232,0-24-10.768-24-24v-56h153.768     c20.208,19.76,47.808,32,78.232,32s58.032-12.24,78.232-32H448v-16H339.784C352.488,221.84,360,199.792,360,176     c0-17.192-4.008-33.424-10.96-48H480V240z M480,112H339.784c-1.208-1.728-2.48-3.4-3.784-5.056V48h120c13.232,0,24,10.768,24,24     V112z" fill="#FFFFFF"/>
			<path d="M248,256c44.112,0,80-35.888,80-80s-35.888-80-80-80s-80,35.888-80,80S203.888,256,248,256z M248,112     c35.288,0,64,28.712,64,64c0,35.288-28.712,64-64,64c-35.288,0-64-28.712-64-64C184,140.712,212.712,112,248,112z" fill="#FFFFFF"/>
			<path d="M216,176c0-17.648,14.352-32,32-32v-16c-26.472,0-48,21.528-48,48H216z" fill="#FFFFFF"/>
			<path d="M218.704,188.792l-14.656,6.424c3.296,7.52,8.616,14.16,15.392,19.2l9.56-12.832     C224.448,198.192,220.88,193.768,218.704,188.792z" fill="#FFFFFF"/>
		</g>
	</g>
</g>
<g>
</g>
<g>
</g>
<g>
</g>
<g>
</g>
<g>
</g>
<g>
</g>
<g>
</g>
<g>
</g>
<g>
</g>
<g>
</g>
<g>
</g>
<g>
</g>
<g>
</g>
<g>
</g>
<g>
</g>
</svg>
