<?xml version="1.0" encoding="iso-8859-1"?>
<!-- Generator: Adobe Illustrator 19.0.0, SVG Export Plug-In . SVG Version: 6.00 Build 0)  -->
<svg xmlns="http://www.w3.org/2000/svg" xmlns:xlink="http://www.w3.org/1999/xlink" version="1.1" id="Capa_1" x="0px" y="0px" viewBox="0 0 512 512" style="enable-background:new 0 0 512 512;" xml:space="preserve" width="512px" height="512px">
<g>
	<g>
		<path d="M366,326c-5.52,0-10,4.48-10,10c0,5.52,4.48,10,10,10c5.52,0,10-4.48,10-10C376,330.48,371.52,326,366,326z" fill="#FFFFFF"/>
	</g>
</g>
<g>
	<g>
		<path d="M186,326c-5.52,0-10,4.48-10,10c0,5.52,4.48,10,10,10s10-4.48,10-10C196,330.48,191.52,326,186,326z" fill="#FFFFFF"/>
	</g>
</g>
<g>
	<g>
		<path d="M146,326c-5.52,0-10,4.48-10,10c0,5.52,4.48,10,10,10s10-4.48,10-10C156,330.48,151.52,326,146,326z" fill="#FFFFFF"/>
	</g>
</g>
<g>
	<g>
		<path d="M386,0H126c-16.542,0-30,13.458-30,30v23v240v83v86c0,16.542,13.458,30,30,30h10v10c0,5.523,4.477,10,10,10    s10-4.477,10-10v-10h200v10c0,5.523,4.478,10,10,10c5.522,0,10-4.477,10-10v-10h10c16.542,0,30-13.458,30-30v-86v-83V53V30    C416,13.458,402.542,0,386,0z M116,71.685l39.073,26.049l-18.69,112.138L116,250.639V71.685z M206,263c5.523,0,10-4.477,10-10v-30    h143.819l30,60H122.18l30-60H196v30C196,258.523,200.477,263,206,263z M196,193c0-5.514,4.486-10,10-10c5.514,0,10,4.486,10,10    c0,5.514-4.486,10-10,10C200.486,203,196,198.514,196,193z M234.28,203c1.11-3.13,1.72-6.494,1.72-10c0-16.542-13.458-30-30-30    s-30,13.458-30,30c0,3.506,0.61,6.87,1.72,10h-19.916l16.667-100h163.057l16.667,100H234.28z M342.973,83H169.027l-30-20h233.945    L342.973,83z M396,462c0,5.514-4.486,10-10,10H126c-5.514,0-10-4.486-10-10v-76h280V462z M396,366H116v-63h280V366z M396,250.639    l-20.383-40.766l-18.69-112.14L396,71.685V250.639z M396,43H116V30c0-5.514,4.486-10,10-10h260c5.514,0,10,4.486,10,10V43z" fill="#FFFFFF"/>
	</g>
</g>
<g>
	<g>
		<path d="M326,326h-40c-5.522,0-10,4.477-10,10s4.478,10,10,10h40c5.522,0,10-4.477,10-10S331.522,326,326,326z" fill="#FFFFFF"/>
	</g>
</g>
<g>
	<g>
		<path d="M286,243h-20c-5.522,0-10,4.477-10,10s4.478,10,10,10h20c5.522,0,10-4.477,10-10S291.522,243,286,243z" fill="#FFFFFF"/>
	</g>
</g>
<g>
	<g>
		<path d="M346,243h-20c-5.522,0-10,4.477-10,10s4.478,10,10,10h20c5.522,0,10-4.477,10-10S351.522,243,346,243z" fill="#FFFFFF"/>
	</g>
</g>
<g>
</g>
<g>
</g>
<g>
</g>
<g>
</g>
<g>
</g>
<g>
</g>
<g>
</g>
<g>
</g>
<g>
</g>
<g>
</g>
<g>
</g>
<g>
</g>
<g>
</g>
<g>
</g>
<g>
</g>
</svg>
